<svg width="800" height="717" viewBox="0 0 800 717" fill="none" xmlns="http://www.w3.org/2000/svg">
<path d="M475.409 342.203V708.475" stroke="#ECDDF8" stroke-width="1.9882" stroke-miterlimit="10"/>
<path d="M752.181 342.203V708.475" stroke="#ECDDF8" stroke-width="1.9882" stroke-miterlimit="10"/>
<path d="M311.762 455.322C311.762 455.322 364.872 443.797 372.868 476.893C379.773 505.292 307.536 504.205 307.536 504.205L148.706 505.118C148.706 505.118 88.8716 511.728 59.2953 445.667C29.719 379.606 1.23309 206.603 1.23309 206.603C1.23309 206.603 -3.03754 182.814 17.6795 179.335C42.0311 175.247 46.8015 225.608 46.8015 225.608C46.8015 225.608 83.6015 439.144 137.03 449.581C145.253 451.19 151.795 457.148 160.2 457.061L311.762 455.322Z" fill="#FF8D29" fill-opacity="0.52"/>
<path d="M452.918 282.84L503.075 279.535C507.164 279.274 511.071 281.057 513.388 284.232L541.42 324.808L517.568 325.895L504.12 306.107C504.12 306.107 465.367 315.37 451.056 306.107L452.918 282.84Z" fill="#F2C09E"/>
<path d="M250.882 151.37L317.894 270.576L457.144 274.838V318.675L310.08 324.851C290.635 325.677 272.189 316.762 261.286 301.323L194.364 186.292L250.882 151.37Z" fill="#FF7A02"/>
<path d="M457.144 274.794V318.632L441.606 319.284V274.315L457.144 274.794Z" fill="#F7E5DA"/>
<path d="M384.18 628.15L392.04 680.86L431.657 678.512L425.978 624.106L384.18 628.15Z" fill="#FCC9A7"/>
<path d="M383.18 675.511C384.044 673.033 387.133 672.032 389.359 673.554C393.721 676.512 401.399 680.034 412.439 678.686C423.933 677.295 427.976 671.423 429.385 667.292C430.112 665.117 432.565 663.943 434.791 664.769L506.211 691.559C510.572 693.168 514.025 696.387 515.888 700.475C517.614 704.302 514.752 708.607 510.345 708.694L389.405 710.39C384.634 710.477 380.818 706.694 381 702.127L381.863 679.773C381.863 679.382 381.954 679.034 382.09 678.686L383.18 675.511Z" fill="#FF8D29"/>
<path d="M263.83 141.149L275.188 158.588C275.915 160.241 276.233 164.242 273.099 165.721L268.692 168.765L259.242 154.935L263.83 141.149Z" fill="#FFEEE3"/>
<path d="M242.658 159.59L239.069 157.937C227.257 152.414 222.35 138.758 228.12 127.451L266.465 52.3003L309.035 72.2187L264.738 156.372C260.013 165.722 252.426 164.156 242.658 159.59Z" fill="#FCC9A7"/>
<path d="M340.792 87.0473C328.298 111.489 297.45 121.665 271.917 109.706C246.384 97.7458 235.753 68.2596 248.247 43.7748C260.741 19.3334 291.544 9.15678 317.122 21.1165C342.7 33.0762 353.286 62.6059 340.792 87.0473Z" fill="#FCC9A7"/>
<path d="M278.641 135.67C266.511 130.016 261.468 115.969 267.419 104.357L289.045 61.9541L341.201 86.3519L323.574 120.926C315.396 136.844 295.269 143.498 278.641 135.67Z" fill="#FCC9A7"/>
<path d="M334.431 96.3105L337.248 115.272C337.475 118.273 334.158 120.23 331.251 118.882L318.439 115.533L334.431 96.3105Z" fill="#FCC9A7"/>
<path d="M289.272 86.8308C289.272 86.8308 307.309 87.9616 310.262 61.3022C310.262 61.3022 341.61 80.4378 354.377 72.8271C354.377 72.8271 358.284 -2.5845 293.179 0.0683878C228.075 2.72127 222.987 70.0002 222.987 70.0002L259.514 101.574L289.272 86.8308Z" fill="#1C2226"/>
<path d="M291.862 87.9176C288.455 94.6585 279.959 97.4419 272.917 94.1367C265.92 90.8314 262.967 82.7423 266.42 76.0014C269.828 69.2604 278.323 66.4771 285.365 69.7823C292.362 73.0875 295.27 81.1767 291.862 87.9176Z" fill="#FCC9A7"/>
<path d="M252.108 77.9146L242.431 99.5291C242.431 99.5291 263.693 115.838 274.415 94.8321L258.968 90.6571L252.108 77.9146Z" fill="#1C2226"/>
<path d="M310.262 61.3017C310.262 61.3017 352.741 92.7014 369.506 66.39C382.863 45.3844 368.006 31.772 346.562 35.1642C337.294 36.6429 332.706 30.6413 325.437 25.9009L310.262 61.3017Z" fill="#1C2226"/>
<path d="M272.099 179.29C272.099 179.29 271.145 160.111 264.784 153.457C258.424 146.803 224.532 128.45 224.532 128.45C224.532 128.45 175.783 141.976 145.843 195.294C122.536 236.827 100.593 341.942 100.593 341.942L241.251 361.469C253.381 282.926 276.097 247.134 272.099 179.29Z" fill="#FF8D29"/>
<path d="M226.894 124.753L221.033 127.276C218.943 128.189 218.489 130.885 220.215 132.364L257.379 164.025C258.878 165.329 261.24 164.938 262.285 163.285L266.465 156.37C267.237 155.066 266.919 153.413 265.693 152.456L230.165 125.231C229.256 124.449 227.984 124.275 226.894 124.753Z" fill="#FFEEE3"/>
<path d="M437.426 289.973L487.583 286.668C491.672 286.407 495.58 288.19 497.897 291.365L523.611 326.375L499.578 329.332L488.628 313.197C488.628 313.197 449.875 322.46 435.564 313.197L437.426 289.973Z" fill="#FCC9A7"/>
<path d="M222.396 160.242L298.086 282.492L441.652 286.276V325.808L286.728 332.288C272.19 332.897 258.333 326.243 250.156 314.674L165.879 195.164L222.396 160.242Z" fill="#FF8D29"/>
<path d="M441.652 286.275V325.764L426.114 326.416V286.275H441.652Z" fill="#FFEEE3"/>
<path d="M100.593 341.942L377.274 380.344C398.446 383.301 414.801 399.697 416.846 420.093L437.472 645.676L375.684 649.503L345.972 453.972L172.239 458.277C125.081 458.277 88.9166 418.18 95.7768 373.516L100.593 341.942Z" fill="#54585A"/>
<path d="M590.986 324.851H445.058V333.897H590.986V324.851Z" fill="#8838C6"/>
<path d="M591.031 333.897L638.235 201.905L628.331 199.643L582.036 326.416L591.031 333.897Z" fill="#8838C6"/>
<path d="M276.325 134.453C276.325 134.453 263.195 127.016 263.195 111.36C263.195 111.36 255.017 128.321 271.691 143.238L276.325 134.453Z" fill="#F2C09E"/>
<path d="M60.931 717C63.1118 717 65.1108 715.565 65.7014 713.434L137.938 440.796C143.936 418.224 165.061 402.438 189.413 402.438C213.038 402.438 234.027 417.615 240.479 439.36C265.739 524.557 324.528 710.433 325.119 712.303C325.891 714.782 328.663 716.217 331.252 715.435C333.842 714.695 335.341 712.042 334.523 709.563C333.933 707.693 275.143 521.904 249.929 436.795C242.296 411.005 217.399 393 189.368 393C160.518 393 135.44 411.701 128.352 438.447L56.1152 711.129C55.4337 713.652 57.0239 716.217 59.6589 716.87C60.1132 716.957 60.5221 717 60.931 717Z" fill="#1F252A"/>
<path d="M250.201 314.631L206.814 253.18" stroke="#ECDDF8" stroke-width="0.7847" stroke-miterlimit="10" stroke-linecap="round" stroke-linejoin="round"/>
<path d="M799.975 333.897H421.934V350.206H799.975V333.897Z" fill="#FCBF8C"/>
<path d="M475.409 389.825H752.181" stroke="#ECDDF8" stroke-width="1.9882" stroke-miterlimit="10"/>
</svg>
