<svg width="109" height="79" viewBox="0 0 109 79" fill="none" xmlns="http://www.w3.org/2000/svg">
<path id="Vector" d="M71.5946 71.1789C71.5946 75.2454 68.3577 78.5 64.3282 78.5C60.2958 78.5 57.0277 75.2426 57.0277 71.1789C57.0277 67.1131 60.315 63.8235 64.3282 63.8235C68.3712 63.8235 71.5946 67.1088 71.5946 71.1789ZM21.5851 71.1789C21.5851 67.126 24.8255 63.8235 28.8515 63.8235C32.881 63.8235 36.1519 67.1124 36.1519 71.1789C36.1519 75.2426 32.8838 78.5 28.8515 78.5C24.8226 78.5 21.5851 75.229 21.5851 71.1789ZM2.52198 3.23244C8.63589 8.9633 15.1101 12.461 25.0935 14.5536C36.6089 16.9673 52.8079 17.5143 78.5325 17.5143C91.4064 17.5143 99.5675 18.238 104.103 19.7367C106.375 20.4875 107.629 21.3986 108.167 22.4047C108.69 23.3814 108.607 24.5878 107.845 26.1296C107.081 27.6746 105.675 29.468 103.713 31.5289C101.756 33.5843 99.2728 35.8784 96.3828 38.4263C94.0969 40.4415 91.5508 42.6201 88.8146 44.9613C85.4759 47.8179 81.8542 50.9168 78.077 54.2566C80.4429 51.0074 83.4436 47.8462 86.3159 44.8568C86.4598 44.707 86.6034 44.5577 86.7466 44.4087C88.4783 42.6076 90.1477 40.8713 91.5644 39.2331C93.0949 37.4633 94.3595 35.7761 95.0948 34.2113C95.8304 32.6458 96.0738 31.119 95.4158 29.7424C94.7655 28.3818 93.2997 27.3093 90.9617 26.4823C86.2879 24.829 77.7242 24.0183 63.5372 24.2326C36.3404 24.6351 22.0333 20.6699 13.8079 15.5689C7.55731 11.6926 4.79831 7.16674 2.52198 3.23244Z" stroke="white"/>
</svg>
