<svg width="140" height="130" viewBox="0 0 140 130" fill="none" xmlns="http://www.w3.org/2000/svg">
<path id="Vector" d="M37.5986 20.1253L34.2627 4.28751L61.6755 23.8188L61.8435 23.9385L62.047 23.9049C64.6771 23.4711 67.3374 23.2471 70 23.2471C72.6629 23.2471 75.3231 23.4682 77.9525 23.9049L78.1563 23.9387L78.3245 23.8188L105.737 4.28751L102.401 20.1253L102.178 21.1863L103.13 20.6674L138.548 1.36086L117.793 34.1915L117.184 35.1543L118.305 34.9506L135.352 31.8525L114.399 57.2123L114.249 57.3939L114.293 57.6253C115.231 62.4986 115.228 67.4924 114.293 72.3663L114.249 72.5975L114.399 72.779L135.352 98.1387L118.305 95.0406L117.185 94.837L117.793 95.7997L138.549 128.639L103.13 109.333L102.178 108.814L102.401 109.875L105.737 125.701L78.3339 106.178L78.1656 106.058L77.9619 106.092C72.7005 106.965 67.3027 106.965 62.0381 106.092L61.8343 106.058L61.6661 106.178L34.2629 125.701L37.5986 109.875L37.8223 108.814L36.8701 109.333L1.45147 128.639L22.207 95.7997L22.8155 94.837L21.695 95.0406L4.64789 98.1387L25.6011 72.779L25.751 72.5975L25.7067 72.3663C24.7717 67.4908 24.7717 62.5005 25.7067 57.625L25.751 57.3938L25.6011 57.2123L4.64789 31.8525L21.695 34.9506L22.8157 35.1543L22.207 34.1915L1.45186 1.36087L36.8701 20.6674L37.8221 21.1863L37.5986 20.1253ZM42.2066 90.8499L42.5469 90.4835L42.2067 90.8499C57.5546 105.099 82.4482 105.108 97.7934 90.8586C113.159 76.59 113.163 53.4129 97.7934 39.1414C90.1154 32.0119 80.0533 28.454 70 28.454C59.9471 28.454 49.8817 32.0029 42.2066 39.1327C26.8405 53.4013 26.8373 76.5784 42.2066 90.8499ZM50.9902 47.3898C56.2308 42.5236 63.1092 40.092 70 40.092C76.8908 40.092 83.7692 42.5236 89.0098 47.3898C99.4811 57.1132 99.478 72.8809 89.0098 82.6014C78.5172 92.3417 61.4827 92.3445 50.9902 82.6015C40.5189 72.8781 40.522 57.1104 50.9902 47.3898Z" stroke="white"/>
</svg>
