<svg width="38" height="38" viewBox="0 0 38 38" fill="none" xmlns="http://www.w3.org/2000/svg">
<path d="M10.4439 2.59746C13.2691 1.12373 16.4271 0.404724 19.6119 0.510123C22.7967 0.615522 25.9002 1.54175 28.6219 3.19906C31.3435 4.85636 33.5909 7.18856 35.1463 9.96966C36.7017 12.7508 37.5124 15.8865 37.4999 19.073C37.4873 22.2595 36.6519 25.3887 35.0746 28.1574C33.4972 30.9262 31.2315 33.2406 28.4969 34.8764C25.7623 36.5121 22.6515 37.4139 19.466 37.4941C16.2805 37.5744 13.1283 36.8305 10.3148 35.3345" stroke="white"/>
<path d="M12.3333 19.3333V18.6666C12.3333 18.4826 12.4825 18.3333 12.6666 18.3333H23.4466L20.4799 15.3733C20.4168 15.3107 20.3813 15.2255 20.3813 15.1366C20.3813 15.0478 20.4168 14.9626 20.4799 14.9L20.9533 14.4333C21.0158 14.3702 21.101 14.3347 21.1899 14.3347C21.2788 14.3347 21.364 14.3702 21.4266 14.4333L25.5199 18.52C25.6137 18.6137 25.6665 18.7408 25.6666 18.8733V19.1266C25.665 19.2589 25.6125 19.3855 25.5199 19.48L21.4266 23.5667C21.364 23.6298 21.2788 23.6652 21.1899 23.6652C21.101 23.6652 21.0158 23.6298 20.9533 23.5667L20.4799 23.0933C20.4172 23.0319 20.3819 22.9478 20.3819 22.86C20.3819 22.7722 20.4172 22.6881 20.4799 22.6266L23.4466 19.6666H12.6666C12.4825 19.6666 12.3333 19.5174 12.3333 19.3333Z" fill="#F1F1F1"/>
</svg>
