<svg width="1920" height="164" viewBox="0 0 1920 164" fill="none" xmlns="http://www.w3.org/2000/svg">
<path d="M-0.353051 261.04C76.0793 261.349 154.827 278.851 230.442 265.528C330.182 247.958 418.344 205.767 516.479 184.654C688.772 147.601 793.904 276.795 946.031 304.454C1027.94 319.362 1102.19 264.453 1168.19 237.063C1205.71 221.492 1246.29 209.121 1289.63 217.993C1332.05 226.701 1370.28 243.984 1406.57 261.707C1472.18 293.754 1545.99 341.283 1630.64 335.466C1734.93 328.308 1813.63 263.559 1919.47 258.522" stroke="black" stroke-opacity="0.1" stroke-miterlimit="10"/>
<path d="M-0.339336 251.109C76.8535 251.835 155.765 271.907 232.326 258.253C329.013 241.007 413.562 198.773 508.658 177.946C677.298 141.005 795.406 263.113 945.069 292.635C1025.51 308.499 1094.71 256.294 1159.55 229.441C1196.94 213.958 1235.51 203.566 1278.18 212.731C1321.19 222.013 1360.41 238.915 1398.13 256.198C1465.85 287.268 1542.38 332.311 1627.46 326.366C1732.77 318.993 1812.51 253.755 1919.4 248.552" stroke="black" stroke-opacity="0.1" stroke-miterlimit="10"/>
<path d="M-0.328855 241.391C77.6111 242.544 156.753 265.197 234.326 251.258C328.027 234.407 409.084 192.157 501.114 171.685C666.168 134.963 796.878 249.712 944.091 281.02C1023.08 297.82 1087.09 248.397 1150.82 222.061C1188.05 206.676 1224.74 198.322 1266.71 207.819C1310.32 217.694 1350.56 234.166 1389.7 251.018C1459.53 281.113 1538.75 323.659 1624.36 317.568C1730.78 309.989 1811.51 244.292 1919.47 238.872" stroke="black" stroke-opacity="0.1" stroke-miterlimit="10"/>
<path d="M-0.314593 231.896C78.3459 233.468 157.757 258.642 236.224 244.469C327.046 228.059 404.676 185.824 493.773 165.755C655.562 129.32 798.368 236.574 943.196 269.647C1020.74 287.365 1079.54 240.724 1142.24 214.857C1179.31 199.569 1214.2 193.253 1255.37 203.024C1299.58 213.502 1340.83 229.592 1381.37 245.976C1453.26 275.035 1535.11 315.172 1621.31 308.954C1728.79 301.169 1810.53 234.935 1919.53 229.398" stroke="black" stroke-opacity="0.1" stroke-miterlimit="10"/>
<path d="M-0.300314 222.608C79.1473 224.577 158.748 252.176 238.175 237.806C326.264 221.868 400.615 179.666 486.94 160.029C645.622 123.929 799.83 223.71 942.234 258.549C1018.49 277.203 1072.03 233.149 1133.85 207.799C1170.8 192.658 1203.87 188.233 1244.35 198.287C1289.13 209.368 1331.39 225.136 1373.25 241.04C1447.1 269.094 1531.48 306.862 1618.27 300.487C1726.77 292.506 1809.46 225.794 1919.47 220.09" stroke="black" stroke-opacity="0.1" stroke-miterlimit="10"/>
<path d="M-0.284008 213.542C79.9106 215.851 159.741 245.728 240.061 231.211C325.631 215.753 396.902 173.555 480.641 154.38C561.875 135.772 648.346 156.545 724.274 178.764C797.495 200.197 867.111 228.344 941.422 247.77C1016.72 267.458 1064.67 225.485 1126.03 200.789C1207.52 168.013 1291.07 209.336 1365.72 236.103C1441.36 263.191 1528.11 298.696 1615.48 292.184C1724.93 284.037 1808.53 216.856 1919.51 211.014" stroke="black" stroke-opacity="0.1" stroke-miterlimit="10"/>
<path d="M-0.270371 204.681C80.6712 207.272 160.518 239.222 241.864 224.597C325.155 209.609 393.586 167.444 475.073 148.69C555.56 130.142 644.31 150.056 720.596 170.394C795.294 190.316 866.401 216.66 940.7 237.362C1015 258.063 1058.33 218.151 1118.9 193.806C1198.53 161.812 1285.57 206.246 1358.93 231.126C1436.15 257.316 1525.1 290.657 1612.94 284.057C1723.26 275.762 1807.68 208.132 1919.47 202.163" stroke="black" stroke-opacity="0.1" stroke-miterlimit="10"/>
<path d="M-0.256235 196.044C81.4455 198.858 161.228 232.6 243.52 217.886C324.826 203.358 390.737 161.216 470.065 142.825C549.939 124.366 640.714 143.458 717.344 162.102C793.36 180.611 865.892 205.365 940.073 227.343C975.069 237.706 1000.71 238.101 1034.51 224.629C1061.99 213.677 1085.22 197.794 1112.65 186.765C1149.26 172.033 1178.43 172.403 1216.8 183.269C1262.9 196.344 1307.83 211.388 1353.07 226.003C1431.59 251.295 1522.46 282.686 1610.71 276.026C1721.78 267.643 1806.91 199.564 1919.5 193.526" stroke="black" stroke-opacity="0.1" stroke-miterlimit="10"/>
<path d="M-0.236608 187.611C82.2251 190.424 161.77 225.784 245.022 211.02C324.715 196.883 388.373 154.588 466.101 136.667C545.562 118.344 638.003 136.636 714.937 153.868C791.872 171.1 865.748 194.567 939.691 217.84C973.861 228.594 998.834 230.09 1032.35 216.686C1058.92 206.057 1081.08 190.39 1107.58 179.683C1143.99 164.971 1172.71 166.491 1210.41 177.717C1256.74 191.513 1302.36 206.526 1348.45 220.731C1427.96 245.224 1520.6 274.86 1608.98 268.181C1720.66 259.748 1806.37 191.259 1919.51 185.181" stroke="black" stroke-opacity="0.1" stroke-miterlimit="10"/>
<path d="M-0.221138 179.412C83.0137 182.146 162.107 218.733 246.292 203.929C324.799 190.106 386.47 147.492 463.119 130.098C542.474 112.068 635.913 129.521 713.326 145.515C791.366 161.626 865.881 184.109 939.519 208.667C972.996 219.821 997.69 222.146 1030.95 208.742C1056.8 198.338 1078.07 182.769 1103.84 172.268C1140.07 157.507 1168.76 159.855 1205.9 171.511C1252.3 186.056 1298.44 201.108 1345.24 215.01C1425.27 238.791 1519.45 266.886 1607.77 260.256C1719.89 251.832 1806.01 182.954 1919.63 176.894" stroke="black" stroke-opacity="0.1" stroke-miterlimit="10"/>
<path d="M-0.206594 171.417C83.7878 173.888 162.202 211.361 247.32 196.517C325.014 182.968 385.352 140.171 461.081 122.982C540.183 105.04 634.849 122.112 712.46 137.103C791.299 152.336 866.146 174.205 939.439 200.098C972.371 211.74 997.199 214.531 1030.28 201.04C1055.6 190.715 1076.21 175.137 1101.48 164.714C1137.58 149.827 1166.67 152.593 1203.36 164.785C1249.67 180.168 1296.17 195.326 1343.49 208.994C1423.75 232.171 1519.03 258.999 1606.98 252.467C1719.37 244.13 1805.7 174.881 1919.59 168.899" stroke="black" stroke-opacity="0.1" stroke-miterlimit="10"/>
<path d="M-0.175688 163.628C84.245 165.835 162.113 203.718 247.751 188.737C325.179 175.198 385.156 132.44 460.646 115.349C539.667 97.4651 634.76 114.887 712.398 129.557C791.516 144.507 866.123 166.211 939.51 192.221C972.322 203.863 997.495 206.264 1030.35 192.861C1055.5 182.604 1075.97 167.163 1101.11 156.877C1137.09 142.165 1166.72 144.852 1203.06 157.395C1249.17 173.304 1295.72 188.579 1343.24 202.11C1423.12 224.859 1519.63 251.384 1606.91 244.609C1719.14 235.912 1806.03 167.832 1919.62 161.139" stroke="black" stroke-opacity="0.1" stroke-miterlimit="10"/>
<path d="M-0.160788 155.964C84.4464 158.054 162.088 196.191 247.926 181.034C325.233 167.378 385.518 124.98 461.061 107.997C540.083 90.2294 634.964 108.421 712.482 123.188C791.346 138.217 865.634 159.882 939.525 184.655C1009.47 208.098 1044.07 171.859 1101.62 149.212C1137.6 135.056 1167.41 137.587 1203.43 150.179C1249.34 166.234 1295.8 181.471 1343.31 194.846C1422.72 217.196 1520.49 243.846 1607.14 236.507C1718.89 227.032 1806.84 161.715 1919.67 153.592" stroke="black" stroke-opacity="0.1" stroke-miterlimit="10"/>
<path d="M-0.14235 148.418C84.718 150.429 162.174 188.849 248.278 173.565C325.585 159.831 386.11 117.881 461.694 101.053C540.716 83.4222 635.317 102.315 712.715 117.131C791.273 132.17 865.28 153.739 939.597 177.254C1008.95 199.209 1044.79 163.61 1102.39 141.986C1138.37 128.443 1168.45 130.896 1204.14 143.508C1249.83 159.651 1296.17 174.771 1343.66 187.912C1422.75 209.805 1521.49 236.171 1607.42 228.347C1718.61 218.23 1807.65 155.745 1919.65 146.357" stroke="black" stroke-opacity="0.1" stroke-miterlimit="10"/>
<path d="M-0.125282 141.007C85.0284 142.96 162.364 181.691 248.789 166.339C326.002 152.625 386.888 111.151 462.525 94.4983C541.548 77.1595 635.843 96.53 713.094 111.356C791.279 126.347 865.126 147.75 939.708 169.96C1008.57 190.445 1045.64 155.634 1103.38 135.012C1139.45 122.141 1169.76 124.594 1205.18 137.196C1250.63 153.369 1296.87 168.314 1344.28 181.144C1423.17 202.511 1522.51 228.224 1607.85 220.001C1718.49 209.349 1808.56 149.794 1919.71 139.268" stroke="black" stroke-opacity="0.1" stroke-miterlimit="10"/>
<path d="M-0.108584 133.724C85.405 135.657 162.595 174.69 249.459 159.328C326.606 145.691 387.866 104.685 463.57 88.3631C542.566 71.3262 636.382 91.1356 713.607 105.913C791.365 120.807 864.985 141.986 939.871 162.853C1008.21 181.897 1046.59 147.999 1104.6 128.488C1140.79 116.307 1171.34 118.848 1206.53 131.411C1251.62 147.667 1297.89 162.123 1345.12 174.717C1423.94 195.49 1523.56 220.248 1608.41 211.656C1718.33 200.577 1809.51 144.019 1919.69 132.511" stroke="black" stroke-opacity="0.1" stroke-miterlimit="10"/>
<path d="M-0.0804469 126.577C85.8198 128.509 162.983 167.883 250.274 152.539C327.355 139.01 389.029 98.5485 464.826 82.5577C543.796 65.9005 637.213 86.022 714.291 100.731C791.635 115.47 865.055 136.358 940.113 155.86C1007.94 173.494 1047.71 140.597 1106.06 122.263C1142.43 110.832 1173.21 113.518 1208.21 126.024C1253.02 142.172 1299.12 156.356 1346.25 168.502C1425.1 188.624 1524.71 212.028 1609.1 203.212C1718.32 191.803 1810.55 138.331 1919.76 125.938" stroke="black" stroke-opacity="0.1" stroke-miterlimit="10"/>
<path d="M-0.0594765 119.585C86.2807 121.527 163.431 161.241 251.215 146.014C328.243 132.651 390.358 92.7724 466.183 77.1613C545.113 60.9132 638.036 81.2788 715.048 95.8618C791.818 110.367 865.211 130.924 940.347 149.034C1007.69 165.275 1048.93 133.497 1107.69 116.399C1144.26 105.757 1175.27 108.647 1210.12 121.133C1254.63 137.127 1300.52 150.991 1347.5 162.639C1426.49 182.01 1525.78 203.847 1609.82 194.827C1718.27 183.195 1811.5 132.867 1919.73 119.725" stroke="black" stroke-opacity="0.1" stroke-miterlimit="10"/>
<path d="M-0.0426838 112.73C86.7775 114.72 163.995 154.814 252.286 139.664C329.261 126.534 391.829 87.2885 467.735 72.096C546.613 56.3153 639.03 76.8276 715.867 91.2453C792.105 105.557 865.417 125.646 940.577 142.354C1007.46 157.213 1050.24 126.631 1109.44 110.837C1146.23 101.051 1177.49 104.165 1212.23 116.544C1256.45 132.348 1302.15 145.84 1348.98 156.921C1428.22 175.542 1526.96 195.52 1610.68 186.345C1718.35 174.519 1812.55 127.452 1919.76 113.64" stroke="black" stroke-opacity="0.1" stroke-miterlimit="10"/>
<path d="M-0.0261473 106.031C87.314 108.078 164.519 148.562 253.463 133.616C330.385 120.681 393.448 82.0965 469.434 67.3713C548.246 52.1068 640.09 72.688 716.82 86.9208C792.524 100.97 865.769 120.553 940.861 135.84C1007.28 149.385 1051.71 120.046 1111.38 105.605C1148.43 96.6471 1179.92 100.101 1214.59 112.286C1258.49 127.849 1303.97 140.928 1350.62 151.408C1430.17 169.172 1528.11 187.077 1611.59 177.795C1718.46 165.97 1813.55 122.124 1919.75 107.749" stroke="black" stroke-opacity="0.1" stroke-miterlimit="10"/>
<path d="M-0.00690416 99.4974C87.88 101.622 165.165 142.495 254.67 127.752C331.632 115.119 395.189 77.1965 471.269 62.9775C550.001 48.2682 641.205 68.8405 717.936 82.859C793.079 96.607 866.27 115.626 941.28 129.481C1007.25 141.673 1053.41 113.695 1113.57 100.676C1150.89 92.603 1182.61 96.398 1217.25 108.524C1260.84 123.814 1306.09 136.434 1352.54 146.254C1432.39 163.102 1529.34 178.789 1612.64 169.4C1718.66 157.508 1814.61 117.069 1919.79 102.208" stroke="black" stroke-opacity="0.1" stroke-miterlimit="10"/>
<path d="M0.0112105 93.158C88.4448 95.3498 165.824 136.613 256.116 122.112C332.958 109.762 397.049 72.5783 473.21 58.8947C551.85 44.76 642.427 65.2844 718.984 79.0209C793.58 92.4385 866.717 110.824 941.565 123.258C1007.12 134.156 1055.11 107.529 1115.74 95.9985C1153.32 88.8312 1185.3 92.9861 1219.95 105.025C1263.21 120.008 1308.22 132.133 1354.44 141.256C1434.81 157.12 1530.55 170.335 1613.72 160.966C1718.92 149.143 1815.63 112.092 1919.81 96.8135" stroke="black" stroke-opacity="0.1" stroke-miterlimit="10"/>
<path d="M0.0310067 86.9263C89.1047 89.2535 166.631 130.915 257.563 116.687C334.393 104.677 399.045 68.233 475.259 55.1141C553.833 41.6027 643.731 62.0112 720.18 75.514C794.216 88.5916 867.299 106.276 941.945 117.289C1007.11 126.941 1056.99 101.743 1118.08 91.7404C1155.95 85.5075 1188.16 90.11 1222.87 101.983C1265.8 116.629 1310.55 128.228 1356.53 136.619C1437.39 151.43 1531.8 162.086 1614.85 152.707C1719.23 140.934 1816.64 107.407 1919.84 91.7794" stroke="black" stroke-opacity="0.1" stroke-miterlimit="10"/>
<path d="M0.0506822 80.8987C89.7645 83.3517 167.425 125.413 259.117 111.495C335.88 99.8356 401.053 64.16 477.402 51.635C555.87 38.7566 645.074 59.02 721.403 72.2211C794.906 84.9293 867.894 101.864 942.298 111.455C1007.13 119.813 1058.95 96.1316 1120.5 87.6085C1158.64 82.3295 1191.08 87.3893 1225.91 99.1551C1268.5 113.436 1313 124.472 1358.7 132.088C1440.04 145.769 1533 153.749 1616.02 144.409C1719.58 132.773 1817.61 102.771 1919.86 86.8327" stroke="black" stroke-opacity="0.1" stroke-miterlimit="10"/>
<path d="M-0.0756897 80.0362C90.2862 82.1559 168.523 124.211 260.8 110.144C337.475 98.4567 402.884 63.2291 479.22 50.9211C557.473 38.3085 646.146 57.9086 722.535 70.4021C795.625 82.362 868.648 98.1006 942.882 105.895C1007.49 112.671 1061.09 90.2476 1123.02 82.9604C1161.4 78.4361 1194.12 83.8129 1229.18 95.2215C1271.56 108.912 1315.89 119.146 1361.36 125.737C1443.36 137.795 1534.77 142.537 1617.68 132.835C1720.22 120.814 1818.6 93.9025 1919.76 77.1778" stroke="black" stroke-opacity="0.1" stroke-miterlimit="10"/>
<path d="M0.0847783 69.3989C91.0788 72.1326 169.14 114.943 262.3 101.763C339.077 90.8634 405.346 56.7638 481.883 45.4947C560.139 33.9993 647.916 53.8068 724.098 66.3655C796.586 78.3156 869.332 93.5663 943.173 100.344C1007.49 106.248 1063.25 85.6681 1125.65 80.2599C1164.31 76.9082 1197.23 82.9606 1232.32 94.4047C1274.25 107.918 1318.22 117.78 1363.32 123.786C1445.73 135.002 1535.48 137.407 1618.47 128.203C1720.37 116.91 1819.38 94.141 1919.8 77.7089" stroke="black" stroke-opacity="0.1" stroke-miterlimit="10"/>
<path d="M0.107033 63.946C91.7678 66.8248 170.056 110.073 263.963 97.2328C340.728 86.7228 407.584 53.4404 484.215 42.8625C562.339 32.0489 649.383 51.6334 725.551 63.8416C797.558 75.432 870.143 89.7384 943.675 95.1241C1007.87 99.8307 1065.54 80.845 1128.42 77.0039C1167.36 74.6256 1200.42 81.2134 1235.84 92.5013C1277.45 105.611 1321.15 114.857 1365.92 120.024C1553.93 142.456 1738.08 103.956 1919.98 73.5313" stroke="black" stroke-opacity="0.1" stroke-miterlimit="10"/>
<path d="M0.126396 58.6682C92.4674 61.7117 170.983 105.339 265.663 92.8973C342.429 82.8061 409.859 50.3506 486.585 40.386C564.576 30.2542 650.886 49.5962 726.894 61.4443C798.488 72.636 870.858 86.0079 944.055 89.9724C1008.24 93.4813 1067.72 76.1779 1131.07 73.8552C1170.23 72.4406 1203.57 79.6025 1239.2 90.7245C1280.33 103.651 1324 111.87 1368.34 116.388C1551.56 135.068 1742.58 99.6946 1919.94 69.4805" stroke="black" stroke-opacity="0.1" stroke-miterlimit="10"/>
<path d="M0.145679 53.6043C93.1668 56.8125 171.923 100.82 267.377 88.7855C344.156 79.074 412.148 47.4844 488.967 38.1818C566.827 28.761 652.39 47.8412 728.317 59.2901C799.523 70.0539 871.639 82.4719 944.501 85.1125C1008.8 87.443 1069.96 71.7635 1133.8 71.0274C1173.19 70.5765 1206.74 78.3029 1242.65 89.2883C1283.51 101.786 1326.89 109.295 1370.85 112.996C1454.6 120.043 1539.5 113.836 1622.54 104.974C1722.16 94.3362 1821.94 82.6763 1919.96 65.6339" stroke="black" stroke-opacity="0.1" stroke-miterlimit="10"/>
<path d="M0.164861 48.7455C93.0661 52.0609 171.716 96.146 267.078 85.1345C343.552 76.2706 411.678 45.9077 487.898 36.6254C564.944 27.2446 648.786 45.548 724.046 56.5694C796.799 67.1851 870.5 79.0557 944.961 80.4575C1011.06 81.7049 1075.45 66.878 1141.4 68.515C1181.22 69.5047 1214.41 78.9649 1250.91 89.4723C1288.83 100.387 1328.86 106.615 1369.34 109.532C1455.5 115.738 1540.93 106.308 1626.04 97.4031C1724.29 87.1279 1823.41 79.1885 1920.02 62.0993" stroke="black" stroke-opacity="0.1" stroke-miterlimit="10"/>
<path d="M0.171443 44.1011C93.7129 47.5812 172.683 92.0359 268.752 81.4422C345.24 73.0067 413.914 43.4415 490.254 34.8309C567.142 26.2001 650.317 44.2415 725.469 54.9028C797.875 65.1878 871.295 76.1337 945.367 76.0366C1011.85 75.9494 1077.67 63.0779 1144.17 66.2527C1184.04 68.1479 1217.51 78.1529 1254.3 88.436C1291.96 98.9614 1331.72 104.528 1371.86 106.695C1458.29 111.363 1542.24 98.9545 1627.34 90.2934C1724.94 80.3599 1824.06 76.0525 1919.99 58.75" stroke="black" stroke-opacity="0.1" stroke-miterlimit="10"/>
<path d="M0.194746 39.6801C94.443 43.3248 173.573 88.1396 270.457 77.9538C346.971 69.9077 416.18 41.1696 492.628 33.221C569.356 25.2233 651.878 43.139 726.99 53.4497C798.995 63.3556 872.134 73.3086 945.818 71.7903C1012.78 70.4074 1079.89 59.4524 1146.96 64.1455C1186.88 66.9462 1220.62 77.4865 1257.65 87.5453C1294.99 97.6914 1334.56 102.596 1374.32 104.014C1460.98 107.123 1543.54 91.7956 1628.61 83.3683C1725.6 73.7569 1824.58 73.1012 1919.95 55.5852" stroke="black" stroke-opacity="0.1" stroke-miterlimit="10"/>
<path d="M0.214144 35.4835C95.1158 39.254 174.58 84.448 272.144 74.6801C348.672 67.0137 418.415 39.0539 494.984 31.8062C571.553 24.5585 653.408 42.2316 728.32 52.1824C800.151 61.7281 872.942 70.7371 946.224 67.788C1013.77 65.0703 1082.03 56.0613 1149.66 62.2532C1189.66 65.9107 1223.65 77.0251 1261.02 86.8498C1298.38 96.6745 1337.45 100.869 1376.84 101.557C1463.5 103.089 1544.96 84.9097 1629.94 76.7162C1726.37 67.4171 1825.27 70.4033 1919.99 52.635" stroke="black" stroke-opacity="0.1" stroke-miterlimit="10"/>
<path d="M0.223909 31.5106C95.7791 35.4749 175.524 80.9413 273.781 71.6203C350.35 64.324 420.601 37.2106 497.277 30.5665C573.634 23.952 654.982 41.5089 729.76 51.119C801.378 60.3145 873.767 68.3698 946.687 64.0189C1014.9 59.9468 1084.18 52.8743 1152.41 60.5357C1192.29 65.021 1226.67 76.7192 1264.31 86.3196C1301.25 95.7359 1340.32 99.3264 1379.27 99.3045C1465.93 99.2688 1546.35 78.3253 1631.21 70.3462C1727.19 61.3203 1825.85 67.9389 1919.99 49.8889" stroke="black" stroke-opacity="0.1" stroke-miterlimit="10"/>
<path d="M0.231445 27.781C96.4267 31.8809 176.412 77.7266 275.376 68.7553C351.986 61.8386 422.744 35.4549 499.515 29.5118C575.792 23.5693 656.326 40.991 731.117 50.2602C802.588 59.0859 874.617 66.2263 947.108 60.4933C1016.05 55.0473 1086.23 49.9113 1155.08 59.0131C1194.95 64.2676 1229.63 76.5594 1267.55 85.9355C1304.32 95.0209 1343.05 97.9595 1381.64 97.2467C1468.17 95.6629 1547.74 72.0525 1632.48 64.2585C1727.91 55.4866 1826.33 65.7375 1920.03 47.3278" stroke="black" stroke-opacity="0.1" stroke-miterlimit="10"/>
<path d="M0.253906 24.2849C97.0493 28.53 177.315 74.6871 276.933 66.1043C353.583 59.4895 424.875 33.9522 501.687 28.5641C577.805 23.2255 657.686 40.6188 732.437 49.5376C803.774 58.0227 875.441 64.2579 947.518 57.172C1017.23 50.3228 1088.28 47.0942 1157.62 57.6072C1197.45 63.6408 1232.42 76.5165 1270.67 85.6974C1307.21 94.4131 1345.74 96.7774 1384 95.3932C1470.3 92.2906 1549.19 66.1299 1633.78 58.5017C1728.76 49.9348 1826.89 63.789 1920.13 45.0196" stroke="black" stroke-opacity="0.1" stroke-miterlimit="10"/>
<path d="M0.265625 21.0334C97.5945 25.4142 178.154 71.9019 278.412 63.6592C355.103 57.3461 426.796 32.5776 503.782 27.7734C579.767 23.0388 659.062 40.4036 733.692 49.011C804.935 57.243 876.241 62.5245 947.89 54.1148C1018.42 45.8429 1090.1 44.483 1160.04 56.3682C1199.79 63.1322 1235.1 76.5917 1273.6 85.558C1309.96 94.0208 1348.28 95.733 1386.14 93.7164C1472.12 89.1341 1550.46 60.569 1634.9 53.0384C1729.54 44.6277 1827.27 62.0658 1920.11 42.849" stroke="black" stroke-opacity="0.1" stroke-miterlimit="10"/>
<path d="M0.272461 18.0437C98.2147 22.5308 178.988 69.3298 279.807 61.4076C356.564 55.3866 428.698 31.3478 505.765 27.1181C581.631 22.9581 660.312 40.3237 734.875 48.6585C806.052 56.618 877.01 61.0041 948.256 51.2998C1019.5 41.5956 1091.9 42.0654 1162.39 55.2742C1202.04 62.7102 1237.7 76.5977 1276.41 85.5247C1312.42 93.8419 1350.79 94.8432 1388.18 92.1943C1473.82 86.2396 1551.72 55.377 1635.98 47.944C1730.21 39.6312 1827.67 60.6238 1920.1 40.8915" stroke="black" stroke-opacity="0.1" stroke-miterlimit="10"/>
<path d="M0.349609 15.2585C98.8253 19.8423 179.772 66.9527 281.191 59.3316C357.922 53.593 430.484 30.2742 507.645 26.5799C583.339 22.9557 661.513 40.3804 735.996 48.4719C807.132 56.1685 877.756 59.7079 948.587 48.7383C1020.75 37.5722 1093.57 39.7845 1164.57 54.2974C1204.15 62.3665 1240.11 76.7793 1279.05 85.5796C1314.91 93.6827 1353.08 94.1 1390.09 90.9258C1430.47 87.455 1469.83 79.5745 1508.58 70.838C1550.41 61.4255 1593.44 47.094 1637.01 43.2588C1730.93 34.9854 1828.06 59.4838 1920.11 39.1678" stroke="black" stroke-opacity="0.1" stroke-miterlimit="10"/>
<path d="M0.345703 12.8242C99.3014 17.4852 180.395 64.8973 282.401 57.5286C359.199 51.9749 432.149 29.2983 509.403 26.1394C584.978 23.0119 662.593 40.5445 737.008 48.4316C808.144 55.9529 878.487 58.6358 948.904 46.4399C1021.85 33.8025 1095.16 37.6889 1166.68 53.467C1206.08 62.179 1242.35 77.0296 1281.49 85.7029C1317.21 93.6115 1355.2 93.5033 1391.85 89.794C1432.14 85.7293 1471.28 77.1675 1509.81 67.8762C1551.32 57.8701 1594.42 42.7986 1637.98 38.9341C1731.6 30.6417 1828.43 58.5973 1920.12 37.5903" stroke="black" stroke-opacity="0.1" stroke-miterlimit="10"/>
<path d="M0.344727 10.614C99.7538 15.3523 181.061 63.0465 283.508 55.8914C360.359 50.513 433.656 28.5175 510.978 25.7967C586.446 23.1368 663.541 40.8745 737.904 48.5572C809.052 55.8935 879.141 57.7977 949.143 44.3852C1022.93 30.2958 1096.57 35.7495 1168.6 52.7441C1207.86 62.0015 1244.39 77.3095 1283.74 85.8852C1319.3 93.6284 1357.07 93.0336 1393.45 88.8475C1433.65 84.2182 1472.58 75.014 1510.91 65.2166C1552.15 54.6754 1595.29 38.9416 1638.86 35.0187C1732.17 26.6196 1828.77 57.9933 1920.16 36.2369" stroke="black" stroke-opacity="0.1" stroke-miterlimit="10"/>
<path d="M0.341797 8.67627C100.164 13.414 181.605 61.4391 284.492 54.449C361.437 49.2165 435.108 27.8242 512.51 25.5318C587.899 23.2907 664.515 41.292 738.797 48.8189C809.972 56.0188 879.86 57.1833 949.433 42.632C1023.98 27.0421 1097.81 33.9562 1170.34 52.0797C1209.47 61.8728 1246.25 77.5797 1285.75 86.0773C1321.19 93.6941 1358.83 92.671 1394.86 88.0472C1435.01 82.8921 1473.72 73.104 1511.88 62.8394C1552.89 51.7921 1596.06 35.5228 1639.68 31.5122C1732.81 22.938 1829.17 57.6519 1920.16 35.0392" stroke="black" stroke-opacity="0.1" stroke-miterlimit="10"/>
<path d="M0.339844 7.02075C100.549 11.758 182.07 60.0848 285.357 53.2013C362.316 48.0759 436.321 27.2479 513.79 25.2962C589.1 23.435 665.209 41.7583 739.491 49.1781C810.706 56.2904 880.459 56.7831 949.632 41.1126C1024.95 24.0415 1098.82 32.2798 1171.89 51.5322C1210.84 61.8027 1247.84 77.8696 1287.48 86.3086C1322.82 93.8379 1360.27 92.445 1396.05 87.432C1436.14 81.7999 1474.68 71.4862 1512.68 60.7934C1553.5 49.2984 1596.63 32.6104 1640.37 28.4925C1733.29 19.6557 1829.55 57.6513 1920.17 34.0458" stroke="black" stroke-opacity="0.1" stroke-miterlimit="10"/>
<path d="M0.335938 5.63818C100.052 10.3761 181.307 58.7032 283.994 52.2879C365.139 47.2252 443.554 24.7361 525.44 25.0863C595.446 25.384 665.714 42.0888 734.876 49.2233C808.358 56.7999 878.684 56.4935 949.815 39.9732C1028.69 21.6998 1102.63 31.1552 1178.7 52.6627C1212.8 62.2969 1245.3 75.4582 1279.65 84.4786C1316.01 94.0222 1355.91 93.0351 1393.3 87.6597C1435.72 81.5669 1476.33 70.0235 1516.34 58.2862C1556.67 46.4121 1599.53 29.7147 1643.03 25.7627C1735.01 17.4529 1830.73 57.757 1920.16 33.2573" stroke="black" stroke-opacity="0.1" stroke-miterlimit="10"/>
<path d="M0.334961 4.54736C100.331 9.21673 181.586 57.8652 284.553 51.4398C365.725 46.3673 444.501 24.4035 526.36 25.0265C596.313 25.5677 666.222 42.7403 735.344 49.8845C808.879 57.4806 879.191 56.6289 949.974 39.038C1029.65 19.225 1103.2 29.8007 1179.9 52.3687C1213.84 62.3537 1246.43 75.6317 1280.88 84.6618C1317.15 94.2152 1356.88 93.0336 1394.06 87.3566C1436.46 80.8841 1476.9 68.8443 1516.79 56.7955C1557.06 44.6294 1599.92 27.747 1643.52 23.6001C1735.33 14.9303 1831.16 58.2625 1920.17 32.5851" stroke="black" stroke-opacity="0.1" stroke-miterlimit="10"/>
<path d="M0.335938 3.7688C100.531 8.36001 181.72 57.3007 284.981 50.7775C366.166 45.6466 445.116 24.15 527.082 25.0065C597.009 25.7327 666.585 43.4609 735.68 50.6635C809.256 58.3569 879.673 57.0279 950.002 38.386C1030.45 17.0724 1103.41 28.5447 1180.77 52.0662C1214.63 62.3531 1247.3 75.7673 1281.77 84.9045C1318.02 94.5066 1357.4 93.2378 1394.55 87.298C1480.38 73.5531 1557.23 30.7733 1643.89 22.0518C1735.54 12.8272 1831.63 59.09 1920.17 32.1279" stroke="black" stroke-opacity="0.1" stroke-miterlimit="10"/>
<path d="M0.334961 3.27319C100.69 7.76682 181.853 56.9997 285.233 50.3206C366.431 45.063 445.649 23.9848 527.575 24.9971C597.515 25.8791 666.785 44.2308 735.854 51.5601C809.457 59.3703 880.114 57.6807 950.041 38.0364C1031.19 15.2321 1103.34 27.3773 1181.43 51.8521C1215.02 62.3536 1247.77 76.2838 1282.32 85.0605C1319.02 94.37 1357.22 93.5604 1394.77 87.3571C1480.74 73.1446 1557.17 30.3265 1644.13 20.9814C1735.66 11.124 1832.16 60.2198 1920.12 31.8369" stroke="black" stroke-opacity="0.1" stroke-miterlimit="10"/>
<path d="M0.333984 3.08691C100.796 7.44408 181.812 56.9692 285.299 50.0466C366.497 44.6137 445.821 23.8859 527.907 24.9857C597.861 25.9261 666.866 45.0571 735.922 52.5617C809.524 60.5569 880.554 58.6039 950.067 37.9766C1031.84 13.6915 1102.98 26.2762 1181.82 51.6847C1253.84 74.8821 1313.19 101.319 1394.7 87.5604C1480.9 73.0068 1556.97 30.5494 1644.24 20.4639C1735.65 9.89578 1832.67 61.6493 1920.22 31.7868" stroke="black" stroke-opacity="0.1" stroke-miterlimit="10"/>
</svg>
