<svg width="164" height="114" viewBox="0 0 164 114" fill="none" xmlns="http://www.w3.org/2000/svg">
<path id="Vector" d="M90.3504 80.9281L90.7136 80.5714L90.3504 80.2147L58.3504 48.7861L58 48.442L57.6496 48.7861L49.6497 56.6433L49.285 57.0014L49.651 57.3581L73.3788 80.4807L58 95.5849L18.7136 57L58 18.4151L63.6496 23.9639L64 24.308L64.3504 23.9639L72.3504 16.1067L72.7136 15.75L72.3504 15.3933L58.3504 1.64328L58 1.29918L57.6496 1.64328L1.64965 56.6433L1.28644 57L1.64965 57.3567L57.6496 112.357L58 112.701L58.3504 112.357L90.3504 80.9281ZM73.6496 33.0718L73.2864 33.4286L73.6496 33.7853L105.65 65.2139L106 65.558L106.35 65.2139L114.35 57.3567L114.715 56.9986L114.349 56.6419L90.6212 33.5192L106 18.4151L145.286 57L106 95.5849L100.35 90.0361L100 89.692L99.6497 90.0361L91.6496 97.8933L91.2864 98.25L91.6496 98.6067L105.65 112.357L106 112.701L106.35 112.357L162.35 57.3567L162.714 57L162.35 56.6433L106.35 1.64328L106 1.29918L105.65 1.64328L73.6496 33.0718Z" fill="black" stroke="white"/>
</svg>
