<svg width="308" height="719" viewBox="0 0 308 719" fill="none" xmlns="http://www.w3.org/2000/svg">
<path d="M-152.513 -57.497C-150.669 -5.34465 -159.179 50.7717 -142.964 101.813C-117.245 182.76 -58.4637 256.581 -27.9232 336.531C-16.2532 367.001 -10.8188 395.101 -28.482 425.19C-43.6162 450.965 -70.0372 473.034 -96.3004 493.789C-142.447 530.286 -206.479 569.86 -215.832 620.528C-221.793 652.769 -196.573 684.07 -174.105 710.807C-148.893 740.758 -119.846 769.006 -94.6479 798.939C-71.4806 826.463 -45.2524 858.954 -52.5589 892.166C-58.8921 920.899 -86.7046 946.21 -113.201 967.842C-164.077 1009.45 -245.848 1054.43 -237.223 1114.71C-227.051 1185.88 -138.26 1237.77 -130.901 1310.09" stroke="#5E5656" stroke-opacity="0.49" stroke-miterlimit="10"/>
<path d="M-136.975 -57.7247C-135.166 -5.21083 -146.163 50.9164 -129.159 102.306C-103.016 181.385 -43.6788 253.022 -12.6599 331.073C-0.507007 361.659 4.31443 389.237 -12.8228 419.565C-27.6338 445.791 -53.2726 468.654 -79.0423 490.19C-124.327 528.165 -187.404 569.073 -198.622 619.913C-205.648 651.791 -181.508 682.548 -159.196 709.021C-134.489 738.316 -105.701 765.836 -80.9666 795.112C-57.7873 822.531 -32.8469 854.406 -41.0222 887.433C-48.1913 916.311 -75.8858 942.133 -102.001 964.396C-151.724 1006.8 -230.942 1053.3 -222.363 1113.25C-212.116 1184.86 -122.728 1237.16 -115.32 1309.91" stroke="#5E5656" stroke-opacity="0.49" stroke-miterlimit="10"/>
<path d="M-121.738 -57.9553C-120.128 -5.01073 -133.983 51.1428 -116.271 102.987C-89.9401 180.068 -30.1173 249.388 1.03439 325.414C13.5854 355.975 17.7688 383.182 1.40342 413.651C-12.9331 440.334 -37.6526 463.972 -62.6117 486.359C-106.826 526.008 -168.358 568.108 -181.305 619.165C-196.942 680.78 -109.51 741.408 -67.9708 790.48C-44.8343 817.796 -21.5976 848.824 -30.6018 881.579C-38.6192 910.699 -66.0305 937.048 -91.7357 960.055C-140.26 1003.5 -216.593 1051.63 -207.976 1111.44C-197.597 1183.58 -107.554 1236.38 -100.043 1309.65" stroke="#5E5656" stroke-opacity="0.49" stroke-miterlimit="10"/>
<path d="M-106.816 -58.1733C-105.543 -4.75792 -122.558 51.4552 -104.246 103.831C-77.9348 178.832 -17.8756 245.726 13.3385 319.623C26.1902 350.075 29.6961 377.027 14.3076 407.565C0.597033 434.724 -22.9967 459.151 -47.1453 482.39C-90.0546 523.709 -149.493 567.001 -164.139 618.341C-181.426 679.052 -96.5376 737.051 -55.672 785.212C-33.1098 811.843 -10.2981 842.944 -21.1987 874.836C-31.311 904.446 -56.551 930.789 -82.2771 955.079C-129.531 999.726 -202.718 1049.62 -194.018 1109.42C-183.45 1182.18 -92.7252 1235.54 -85.0252 1309.43" stroke="#5E5656" stroke-opacity="0.49" stroke-miterlimit="10"/>
<path d="M-92.1842 -58.3873C-91.3288 -4.46188 -111.778 51.8627 -92.8111 104.817C-66.712 177.674 -6.44496 242.077 24.5695 313.783C78.4794 438.324 -112.161 506.76 -147.099 617.462C-165.956 677.133 -84.137 732.179 -44.096 779.47C-21.6869 805.98 -1.18889 835.902 -12.7416 867.406C-23.7411 897.399 -48.4081 924.342 -73.6243 949.583C-119.62 995.578 -189.411 1047.31 -180.585 1107.23C-169.8 1180.66 -78.3647 1234.66 -70.489 1309.23" stroke="#5E5656" stroke-opacity="0.49" stroke-miterlimit="10"/>
<path d="M-77.8673 -58.5937C-77.5806 -4.13671 -101.532 52.3383 -82.019 105.921C-56.2843 176.599 4.08048 238.501 34.7982 307.96C88.7081 429.908 -92.5923 507.572 -130.182 616.54C-150.443 675.208 -72.2638 726.929 -32.9923 773.359C-10.6675 799.756 7.1716 828.399 -4.93778 859.465C-16.824 889.872 -40.8483 917.479 -65.5129 943.709C-110.112 991.135 -176.478 1044.74 -167.47 1104.92C-156.385 1179.06 -64.2789 1233.74 -56.1719 1309.03" stroke="#5E5656" stroke-opacity="0.49" stroke-miterlimit="10"/>
<path d="M-63.8531 -58.7977C-64.1486 -3.79005 -91.7252 52.8564 -71.7345 107.106C-46.4878 175.616 13.9049 234.944 44.1898 302.244C97.9074 421.591 -73.2716 508.348 -113.513 615.6C-135.137 673.245 -60.8211 721.427 -22.3184 767.042C-0.118708 793.346 14.9085 820.6 2.37944 851.198C-10.3108 882.035 -33.7881 910.336 -57.8182 937.582C-101.019 986.487 -163.851 1041.97 -154.66 1102.45C-143.261 1177.32 -50.4562 1232.73 -42.1037 1308.77" stroke="#5E5656" stroke-opacity="0.49" stroke-miterlimit="10"/>
<path d="M-50.1414 -58.9967C-51.033 -3.44761 -82.248 53.4181 -61.8474 108.383C-37.184 174.774 23.1967 231.613 52.9524 296.737C106.327 413.535 -54.3498 509.111 -97.1337 614.656C-120.093 671.286 -49.7513 715.827 -11.9892 760.665C10.0713 786.857 22.2057 812.818 9.20151 842.919C-4.32002 874.197 -27.1812 903.22 -50.5908 931.463C-92.3942 981.856 -151.678 1039.2 -142.275 1100.06C-130.575 1175.71 -37.1131 1231.82 -28.4463 1308.61" stroke="#5E5656" stroke-opacity="0.49" stroke-miterlimit="10"/>
<path d="M-36.7457 -59.1915C-38.22 -3.12017 -72.9905 53.9918 -52.2501 109.588C-28.2375 173.938 32.0908 228.336 61.25 291.379C114.189 405.856 -35.7989 509.889 -81.0965 613.773C-105.364 669.398 -38.9966 710.288 -1.90579 754.396C20.0155 780.476 29.2581 805.2 15.8601 834.737C1.49355 866.457 -20.8204 896.193 -43.5547 925.422C-83.8785 977.255 -139.739 1036.43 -130.15 1097.7C-118.15 1174.11 -23.9212 1230.91 -15.0776 1308.45" stroke="#5E5656" stroke-opacity="0.49" stroke-miterlimit="10"/>
<path d="M-23.638 -59.3806C-25.6667 -2.74002 -63.8562 54.5592 -42.8302 110.834C-19.5079 173.248 40.7421 225.311 69.2654 286.388C121.703 398.66 -17.6324 510.655 -65.4443 612.85C-91.045 667.575 -28.3784 704.771 7.97443 748.273C29.6883 774.271 36.2448 797.736 22.4406 826.786C7.22859 858.927 -14.6207 889.368 -36.6668 919.528C-75.5532 972.743 -128.047 1033.66 -118.231 1095.36C-105.945 1172.48 -11.0317 1229.96 -1.9433 1308.21" stroke="#5E5656" stroke-opacity="0.49" stroke-miterlimit="10"/>
<path d="M-10.8471 -59.5621C-13.3483 -2.38209 -54.7503 55.1295 -33.508 112.038C-10.8875 172.667 49.3278 222.536 77.1762 281.781C104.199 339.253 75.7052 401.3 45.0721 455.867C15.5214 508.489 -23.5366 558.686 -50.2447 612.042C-77.3125 666.106 -17.6356 699.368 17.7915 742.553C64.8085 799.898 7.29087 860.306 -29.7729 914.063C-67.279 968.53 -116.558 1031.09 -106.544 1093.19C-94.013 1170.99 1.56985 1229.11 10.8617 1308.04" stroke="#5E5656" stroke-opacity="0.49" stroke-miterlimit="10"/>
<path d="M1.65678 -59.7421C-1.23438 -2.02391 -45.5627 55.5436 -24.1577 113.181C-2.22244 172.196 57.9195 220.043 85.1517 277.692C112.084 334.634 84.8246 398.286 56.8474 453.067C29.443 506.709 -7.05641 557.93 -35.5645 611.305C-64.0726 664.679 -7.34687 694.692 27.5767 737.324C73.4736 793.366 11.5987 856.323 -22.8143 909.116C-59.0384 964.693 -105.242 1028.77 -95.0992 1091.21C-82.3526 1169.62 13.8716 1228.31 23.3512 1307.83" stroke="#5E5656" stroke-opacity="0.49" stroke-miterlimit="10"/>
<path d="M13.8434 -59.917C10.6448 -1.65247 -36.2123 55.9076 -14.673 114.217C6.59409 171.828 66.6801 217.88 93.3795 273.999C120.181 330.505 94.0989 395.583 68.5162 450.573C43.1189 505.124 8.87516 557.326 -21.4341 610.643C-35.7263 635.797 -36.0411 654.069 -16.7122 677.864C-0.999624 697.203 21.6309 713.412 37.4529 732.721C58.5859 758.481 58.3385 779.271 43.37 806.838C25.3564 839.964 4.55392 872.289 -15.6404 904.831C-50.5858 961.31 -94.0202 1026.72 -83.7899 1089.44C-70.9111 1168.39 25.9531 1227.58 35.538 1307.66" stroke="#5E5656" stroke-opacity="0.49" stroke-miterlimit="10"/>
<path d="M25.7422 -60.0859C22.5522 -1.28003 -26.5884 56.1452 -4.96955 115.137C15.7298 171.608 76.0102 216.051 102.032 271.041C128.637 327.256 103.7 393.503 80.1128 448.68C56.5258 503.857 24.1109 556.99 -8.02852 610.165C-22.8796 634.739 -24.7545 652.561 -5.52506 676.148C9.72386 694.849 32.0401 710.303 47.3981 728.954C68.5013 754.572 66.6276 775.064 51.1432 802.165C32.1154 835.469 11.362 868.286 -8.24557 901.428C-42.0533 958.591 -82.9945 1025.22 -72.7353 1088.04C-59.7808 1167.43 37.667 1227.01 47.313 1307.48" stroke="#5E5656" stroke-opacity="0.49" stroke-miterlimit="10"/>
<path d="M37.3109 -60.2493C34.2396 -0.894328 -16.6373 56.2355 5.04704 115.892C25.2933 171.524 86.0047 214.545 111.272 268.777C137.464 324.923 113.72 391.863 91.883 447.355C69.8885 503.295 38.8685 556.861 4.91204 609.847C-10.5102 633.936 -13.5561 651.577 5.67048 674.984C20.5953 693.177 42.764 707.996 57.8253 726.13C78.9952 751.624 75.9532 772.115 59.8579 798.817C39.7729 832.185 18.9706 865.384 -0.203112 899.022C-33.002 956.539 -71.7549 1024.24 -61.5651 1087.01C-48.6194 1166.71 49.3827 1226.58 59.0066 1307.39" stroke="#5E5656" stroke-opacity="0.49" stroke-miterlimit="10"/>
<path d="M48.5904 -60.4094C45.8986 -0.518894 -6.23626 56.1464 15.5136 116.466C35.366 171.525 96.3233 213.593 121.292 267.174C147.357 323.141 124.163 390.947 103.743 446.558C82.9944 503.049 52.8438 556.839 17.0011 609.608C0.885761 633.318 -2.81814 651.065 16.5301 674.346C31.3389 692.161 53.5139 706.505 68.4597 724.289C89.8067 749.685 86.1785 770.471 69.3225 796.872C48.0548 830.192 27.1053 863.639 8.26722 897.643C-23.6771 955.318 -60.6315 1023.77 -50.5832 1086.29C-37.7581 1166.18 60.7685 1226.19 70.2855 1307.2" stroke="#5E5656" stroke-opacity="0.49" stroke-miterlimit="10"/>
<path d="M59.5817 -60.5559C57.2657 -0.367342 4.54757 55.9177 26.4957 116.605C46.3313 171.474 107.23 213.286 132.058 266.698C158.04 322.61 134.356 390.727 114.39 446.351C94.0428 503.035 64.123 556.65 28.1165 609.488C11.9998 633.112 8.84939 651.098 28.0714 674.219C42.7821 691.912 64.7632 706.165 79.5151 723.857C100.614 749.171 97.1012 770.335 79.7467 796.497C57.7348 829.686 36.621 863.174 17.9776 897.317C-13.3666 954.707 -49.8811 1024.03 -39.4969 1086.06C-26.1653 1165.83 70.7189 1226.27 81.2355 1307.05" stroke="#5E5656" stroke-opacity="0.49" stroke-miterlimit="10"/>
<path d="M70.3954 -60.7083C68.2464 -0.389489 15.1685 55.7397 37.3661 116.566C57.3653 171.347 117.759 213.385 142.437 266.838C168.253 322.752 143.482 390.735 123.377 446.275C102.917 502.78 73.0487 556.167 38.7928 609.338C6.37464 659.668 57.8357 683.542 90.3344 724.055C110.65 749.383 107.359 770.676 89.9323 796.601C67.7121 829.651 46.6523 863.082 28.2285 897.212C-2.55756 954.26 -39.2365 1024.48 -28.0626 1086.05C-13.6372 1165.46 79.357 1226.72 91.8848 1306.93" stroke="#5E5656" stroke-opacity="0.49" stroke-miterlimit="10"/>
<path d="M81.0433 -60.8569C79.007 -0.359309 25.5285 55.6433 47.9078 116.656C68.0169 171.436 127.781 213.655 152.24 267.14C177.864 323.057 152.1 390.856 131.925 446.312C111.448 502.599 81.7138 555.783 49.2351 609.23C18.9125 659.109 69.4807 683.881 100.537 724.446C119.987 749.787 116.81 771.268 99.3514 796.966C77.0051 829.866 56.1088 863.199 38.0146 897.314C7.87059 954.125 -28.399 1025.04 -16.5462 1086.08C-1.22032 1165.08 87.788 1227.17 102.093 1306.76" stroke="#5E5656" stroke-opacity="0.49" stroke-miterlimit="10"/>
<path d="M91.4994 -61.0038C89.5489 -0.29859 35.6293 55.6255 58.1085 116.865C78.189 171.578 137.284 214.065 161.496 267.591C186.708 323.515 160.267 391.106 140.077 446.458C119.664 502.478 90.162 555.545 59.5274 609.153C31.2738 658.647 80.7431 684.31 110.386 725.002C128.889 750.425 125.714 772.068 108.267 797.575C85.8762 830.295 65.2261 863.558 47.5707 897.609C18.1663 954.266 -17.1759 1025.59 -4.7664 1086.21C11.3089 1164.8 96.1933 1227.69 112.096 1306.65" stroke="#5E5656" stroke-opacity="0.49" stroke-miterlimit="10"/>
<path d="M101.776 -61.1482C99.8575 -0.187062 45.5104 55.6393 68.0082 117.192C87.9781 171.859 146.418 214.622 170.164 268.204C194.949 324.115 167.885 391.374 147.763 446.706C127.483 502.42 98.2939 555.32 69.5588 609.116C43.3328 658.208 91.5253 684.822 119.605 725.729C137.134 751.253 133.838 773.069 116.443 798.414C93.9322 830.883 73.9712 864.151 56.648 898.073C28.081 954.668 -5.91162 1026.17 7.01439 1086.43C23.6861 1164.5 104.351 1228.25 121.63 1306.49" stroke="#5E5656" stroke-opacity="0.49" stroke-miterlimit="10"/>
<path d="M111.861 -61.2809C109.947 -0.0442495 55.1184 55.7707 77.5936 117.628C97.4115 172.25 155.087 215.319 178.366 268.975C202.616 324.876 175.107 391.857 155.08 447.083C135.015 502.499 106.236 555.25 79.4262 609.139C55.1867 657.839 101.98 685.463 128.401 726.643C144.874 752.307 141.374 774.287 124.059 799.489C101.698 831.763 82.1191 864.905 65.4262 898.74C37.7802 955.349 5.69719 1026.81 18.9341 1086.74C36.065 1164.3 112.387 1228.86 130.905 1306.4" stroke="#5E5656" stroke-opacity="0.49" stroke-miterlimit="10"/>
<path d="M121.726 -61.4162C119.803 0.134041 64.4934 55.9471 86.8093 118.158C106.393 172.746 163.249 216.142 185.993 269.825C209.665 325.707 181.807 392.342 161.958 447.517C142.216 502.519 113.904 555.245 89.0599 609.159C66.7797 657.486 112.009 686.18 136.69 727.673C152.052 753.496 148.267 775.652 130.978 800.749C108.832 832.801 89.7025 865.788 73.7111 899.503C47.1245 956.191 17.2501 1027.4 30.7714 1087.07C48.2098 1164.08 120.105 1229.42 139.67 1306.24" stroke="#5E5656" stroke-opacity="0.49" stroke-miterlimit="10"/>
<path d="M131.399 -61.5517C129.413 0.34148 73.5681 56.2106 95.7798 118.784C115.033 173.34 171.001 217.072 193.155 270.822C216.167 326.676 188.098 392.954 168.48 448.001C149.007 502.62 121.353 555.277 98.4881 609.18C78.1535 657.143 121.711 686.965 144.555 728.801C158.711 754.805 154.612 777.137 137.473 802.155C115.592 833.993 96.9857 866.836 81.7932 900.438C56.2674 957.289 29.0108 1028.06 42.7486 1087.51C60.4528 1163.95 127.756 1230.05 148.258 1306.13" stroke="#5E5656" stroke-opacity="0.49" stroke-miterlimit="10"/>
<path d="M140.852 -61.6829C138.789 0.582043 82.3942 56.4503 104.325 119.494C123.303 174.016 178.342 218.115 199.838 271.932C222.121 327.75 193.948 393.62 174.591 448.588C155.483 502.821 128.543 555.42 107.682 609.243C89.1976 656.854 131.015 687.872 151.955 730.07C164.945 756.273 160.369 778.784 143.504 803.741C121.958 835.353 103.934 868.033 89.5878 901.492C65.2745 958.543 40.9354 1028.69 54.8216 1087.97C72.5168 1163.85 135.282 1230.65 156.57 1306" stroke="#5E5656" stroke-opacity="0.49" stroke-miterlimit="10"/>
<path d="M150.071 -61.8095C147.904 0.846535 90.9611 56.7805 112.61 120.228C131.162 174.785 185.273 219.25 206.055 273.144C227.554 328.918 199.388 394.333 180.333 449.296C161.644 503.122 135.5 555.671 116.659 609.405C100.079 656.663 139.992 688.946 158.932 731.528C170.675 757.94 165.62 780.62 148.837 805.557C127.675 836.935 110.296 869.443 96.8774 902.745C73.8591 959.994 52.6414 1029.39 66.6766 1088.53C84.4586 1163.81 142.425 1231.3 164.388 1305.91" stroke="#5E5656" stroke-opacity="0.49" stroke-miterlimit="10"/>
<path d="M159.016 -61.9314C156.759 1.11555 99.2672 57.1247 120.581 121.138C138.734 175.615 191.806 220.477 211.834 274.441C232.521 330.161 204.417 395.128 185.758 449.961C167.53 503.391 142.279 555.887 125.442 609.476C110.684 656.41 148.708 690.025 165.551 732.972C176.02 759.595 170.459 782.463 153.8 807.408C133.068 838.545 116.383 870.868 103.947 903.992C82.3225 961.589 64.5811 1030.08 78.5873 1089.12C96.2637 1163.82 149.458 1231.92 172 1305.81" stroke="#5E5656" stroke-opacity="0.49" stroke-miterlimit="10"/>
<path d="M167.808 -62.0521C165.366 1.45378 107.313 57.5764 128.249 122.051C145.921 176.527 197.956 221.804 217.187 275.818C236.995 331.505 209.047 395.985 190.717 450.737C172.964 503.761 148.701 556.203 133.868 609.617C120.864 656.248 156.89 691.244 171.581 734.548C180.734 761.391 174.544 784.441 158.119 809.419C137.858 840.315 121.916 872.449 110.51 905.379C90.3745 963.304 76.2315 1030.79 90.2503 1089.76C107.849 1163.86 156.077 1232.54 179.103 1305.72" stroke="#5E5656" stroke-opacity="0.49" stroke-miterlimit="10"/>
<path d="M176.314 -62.1675C173.7 1.79708 115.085 58.0236 135.591 123.047C152.767 177.483 203.722 223.148 222.117 277.27C241.03 332.895 213.281 396.878 195.375 451.538C178.138 504.173 154.932 556.532 142.102 609.744C130.922 656.108 164.826 692.515 177.434 736.185C185.244 763.239 178.411 786.46 162.138 811.522C142.39 842.171 127.238 874.108 116.924 906.827C98.3874 965.068 88.0065 1031.46 101.97 1090.41C119.367 1163.93 162.628 1233.13 186.083 1305.63" stroke="#5E5656" stroke-opacity="0.49" stroke-miterlimit="10"/>
<path d="M177.528 -62.2755C175.391 2.1437 116.794 58.7808 137.513 124.217C154.727 178.59 205.049 224.433 223.136 278.551C241.671 334.028 214.855 397.619 197.949 452.306C181.765 504.632 160.249 556.99 149.952 610.041C141.002 656.215 173.147 693.915 184.014 737.881C190.76 765.125 183.483 788.549 167.717 813.771C148.801 844.259 134.781 876.058 125.911 908.591C109.673 967.264 103.846 1032.49 118.318 1091.35C136.247 1164.14 175.147 1233.65 199.701 1305.35" stroke="#5E5656" stroke-opacity="0.49" stroke-miterlimit="10"/>
<path d="M192.541 -62.3891C189.543 2.49358 129.874 59.0217 149.352 125.106C165.457 179.569 214.199 226.048 230.823 280.331C247.783 335.835 220.663 398.791 203.663 453.332C187.486 505.229 166.654 557.38 157.788 610.129C150.065 656.078 179.631 695.356 187.852 739.693C192.947 767.162 184.718 790.747 168.901 815.991C150.229 846.153 136.73 877.688 128.681 909.944C113.633 968.89 111.089 1032.88 124.86 1091.81C141.757 1164.16 174.821 1234.2 198.956 1305.39" stroke="#5E5656" stroke-opacity="0.49" stroke-miterlimit="10"/>
<path d="M200.235 -62.4899C197.039 2.87085 136.754 59.5703 155.76 126.194C171.315 180.656 218.909 227.571 234.559 281.937C250.556 337.361 223.744 399.79 207.238 454.313C191.564 505.86 172.063 557.876 165.158 610.376C159.124 656.212 186.458 696.884 192.472 741.598C196.196 769.288 187.213 792.98 171.62 818.458C153.515 848.381 140.881 879.711 134.014 911.714C104.139 1046.13 160.203 1176.5 204.852 1305.43" stroke="#5E5656" stroke-opacity="0.49" stroke-miterlimit="10"/>
<path d="M207.682 -62.5897C204.26 3.25917 143.442 60.1285 161.893 127.312C176.857 181.784 223.29 229.125 238.076 283.571C253.109 338.915 226.632 400.817 210.632 455.218C195.517 506.461 177.333 558.304 172.43 610.535C168.086 656.335 193.064 698.336 196.94 743.417C199.306 771.29 189.515 795.194 174.158 820.811C156.308 850.391 145.123 881.68 139.166 913.36C114.54 1044.29 166.258 1179.61 210.567 1305.31" stroke="#5E5656" stroke-opacity="0.49" stroke-miterlimit="10"/>
<path d="M214.827 -62.6849C211.179 3.65198 149.828 60.7008 167.71 128.444C182.139 182.934 227.356 230.694 241.208 285.221C255.237 340.486 229.123 401.85 213.685 456.185C199.17 507.144 182.329 558.785 179.292 610.748C176.611 656.608 199.313 699.842 200.955 745.3C201.964 773.356 191.379 797.424 176.217 823.238C158.968 852.618 148.783 883.682 143.976 915.078C134.824 974.891 144.384 1035.24 157.675 1094.21C173.626 1164.95 191.021 1235.78 215.995 1305.25" stroke="#5E5656" stroke-opacity="0.49" stroke-miterlimit="10"/>
<path d="M221.682 -62.7741C217.882 3.47976 156.419 60.4544 172.858 128.154C186.088 182.444 229.575 230.327 243.393 284.427C257.358 339.113 232.323 399.234 217.483 453.086C203.191 505.142 187.138 557.901 185.864 610.977C184.728 658.094 206.258 703.646 204.571 750.668C203.551 779.05 190.516 802.901 176.035 829.131C160.992 856.377 152.582 885.028 148.849 913.928C140.906 975.441 155.02 1036.1 168.389 1096.54C183.816 1166.31 195.956 1236.76 220.982 1305.22" stroke="#5E5656" stroke-opacity="0.49" stroke-miterlimit="10"/>
<path d="M228.236 -62.8699C224.21 3.84349 162.229 61.0543 178.085 129.267C190.71 183.576 233.077 231.866 245.948 286.066C258.853 340.656 234.182 400.296 219.849 454.063C206.02 505.865 191.269 558.404 192.106 611.171C192.857 658.534 211.642 705.146 207.79 752.591C205.493 781.031 191.692 805.094 177.529 831.519C163.033 858.576 155.555 887.022 152.876 915.659C147.106 977.336 165.408 1036.87 178.434 1097.31C193.373 1166.63 200.387 1237.15 225.708 1305.12" stroke="#5E5656" stroke-opacity="0.49" stroke-miterlimit="10"/>
<path d="M234.475 -62.9481C230.223 4.27237 167.735 61.6052 183.023 130.406C195.099 184.743 236.304 233.431 248.242 287.722C260.252 342.212 235.753 401.384 221.913 455.115C208.616 506.624 195.263 558.941 198.102 611.401C200.686 659.077 216.778 706.652 210.79 754.531C207.215 783.029 192.661 807.294 178.818 833.884C164.854 860.705 158.308 889.003 156.682 917.357C153.114 979.162 175.522 1037.65 188.217 1098.07C202.696 1166.96 204.556 1237.46 230.174 1305.02" stroke="#5E5656" stroke-opacity="0.49" stroke-miterlimit="10"/>
<path d="M240.397 -63.0243C235.973 4.66436 172.953 62.2431 187.658 131.538C199.199 185.893 239.311 234.978 250.261 289.371C261.211 343.763 237.047 402.455 223.714 456.035C210.924 507.413 198.9 559.462 203.753 611.604C208.227 659.668 221.584 708.104 213.486 756.415C208.703 784.99 193.341 809.438 179.831 836.27C166.321 863.103 160.772 891.025 160.173 919.096C158.83 980.865 185.252 1038.51 197.616 1098.87C211.649 1167.37 208.37 1237.89 234.337 1304.99" stroke="#5E5656" stroke-opacity="0.49" stroke-miterlimit="10"/>
<path d="M246.002 -63.1026C241.311 5.05577 177.91 62.8401 191.991 132.639C203.01 187.03 241.932 236.496 252.031 290.977C262.086 345.232 238.081 403.561 225.228 457.038C212.929 508.256 202.247 559.999 209.075 611.854C215.466 660.362 226.1 709.563 215.934 758.334C209.982 786.842 193.8 811.589 180.61 838.606C167.672 865.125 162.975 893.033 163.374 920.785C164.243 982.519 194.555 1039.36 206.616 1099.64C220.259 1167.82 211.852 1238.25 238.211 1304.93" stroke="#5E5656" stroke-opacity="0.49" stroke-miterlimit="10"/>
<path d="M251.265 -63.1772C246.389 5.44004 182.454 63.4038 196.049 133.714C206.532 188.142 244.43 237.985 253.541 292.549C262.647 346.761 238.825 404.507 226.453 457.987C214.675 509.092 205.28 560.558 214.055 612.078C222.391 661.078 230.301 710.959 218.109 760.208C211.071 788.724 194.054 813.693 181.183 840.904C168.71 867.292 164.93 894.949 166.3 922.429C169.353 984.033 203.42 1040.22 215.218 1100.42C228.498 1168.22 214.963 1238.55 241.826 1304.9" stroke="#5E5656" stroke-opacity="0.49" stroke-miterlimit="10"/>
<path d="M256.197 -63.2358C251.122 5.81209 186.751 63.9822 199.803 134.766C209.861 189.23 246.569 239.471 254.898 294.076C263.15 348.188 239.362 405.468 227.484 458.912C216.185 509.914 208.064 561.103 218.744 612.299C229.067 661.818 234.294 712.359 220.115 761.982C211.978 790.486 194.14 815.677 181.547 843.122C169.594 869.34 166.622 896.841 168.937 924.069C174.13 985.478 211.789 1041.12 223.353 1101.22C236.338 1168.7 217.717 1238.9 245.082 1304.93" stroke="#5E5656" stroke-opacity="0.49" stroke-miterlimit="10"/>
<path d="M260.786 -63.2974C255.524 6.13351 190.69 64.52 203.268 135.768C212.901 190.266 248.528 240.81 256.034 295.551C263.433 349.582 239.68 406.444 228.24 459.795C217.297 510.725 210.518 561.636 223.062 612.498C235.4 662.565 237.997 713.604 221.887 763.685C212.718 792.148 194.06 817.59 181.772 845.21C170.174 871.29 168.12 898.624 171.324 925.553C178.602 986.71 219.649 1041.91 231.073 1101.9C243.835 1169.14 220.153 1239.14 248.146 1304.86" stroke="#5E5656" stroke-opacity="0.49" stroke-miterlimit="10"/>
<path d="M265.004 -63.356C259.599 6.51418 194.326 65.0596 206.458 136.713C215.679 191.266 250.28 242.139 256.977 296.951C263.564 350.909 239.804 407.333 228.748 460.631C218.189 511.507 212.671 562.152 227.037 612.7C241.403 663.248 241.425 714.831 223.453 765.331C213.335 793.743 194.076 819.441 181.845 847.212C170.45 873.042 169.399 900.398 173.491 926.98C182.702 987.86 226.987 1042.69 238.271 1102.56C250.891 1169.51 222.191 1239.39 250.907 1304.82" stroke="#5E5656" stroke-opacity="0.49" stroke-miterlimit="10"/>
<path d="M268.935 -63.3608C263.398 6.89137 197.688 65.5672 209.4 137.655C218.223 192.195 251.812 243.388 257.754 298.278C263.583 352.125 239.735 408.19 229.022 461.425C218.834 512.267 214.507 562.655 230.655 612.88C247.092 664.051 244.659 715.977 224.851 766.867C213.84 795.236 193.842 821.164 181.793 849.094C170.698 874.815 170.47 902.016 175.299 928.31C180.578 957.001 192.069 984.871 204.763 1012.3C218.44 1041.89 239.068 1072.24 244.892 1103.2C257.454 1169.92 223.803 1239.64 253.34 1304.79" stroke="#5E5656" stroke-opacity="0.49" stroke-miterlimit="10"/>
<path d="M272.37 -63.416C266.728 7.17983 200.594 65.9669 211.955 138.478C220.518 193.07 253.205 244.553 258.392 299.521C263.519 353.294 239.513 408.962 229.088 462.145C219.147 512.983 216.026 563.153 233.9 613.056C252.422 664.754 247.631 717.059 226.043 768.348C214.122 796.608 193.51 822.765 181.642 850.834C170.82 876.446 171.332 903.512 176.912 929.538C183.028 958.158 195.479 985.852 208.953 1013.1C223.465 1042.46 245.139 1072.84 251.003 1103.79C263.589 1170.31 225.057 1239.89 255.565 1304.76" stroke="#5E5656" stroke-opacity="0.49" stroke-miterlimit="10"/>
<path d="M275.488 -63.4653C269.742 7.45516 203.212 66.4005 214.276 139.23C222.591 193.864 254.321 245.609 258.89 300.634C263.357 354.341 239.057 409.644 228.919 462.784C219.24 513.628 217.215 563.599 236.802 613.181C257.38 665.445 250.38 718.023 227.081 769.7C214.39 797.868 193.135 824.224 181.406 852.434C170.816 877.937 172.012 904.831 178.263 930.656C185.175 959.198 198.53 986.735 212.717 1013.83C227.981 1042.98 250.589 1073.38 256.536 1104.33C269.27 1170.63 225.913 1240.12 257.476 1304.76" stroke="#5E5656" stroke-opacity="0.49" stroke-miterlimit="10"/>
<path d="M278.223 -63.5083C272.481 7.70661 205.485 66.7543 216.321 139.901C224.431 194.604 255.313 246.629 259.279 301.721C263.154 355.38 238.477 410.347 228.558 463.427C219.072 514.286 218.089 564.099 239.279 613.351C261.981 666.123 252.923 718.866 228.035 770.929C214.587 799.014 192.771 825.551 181.154 853.873C170.741 879.288 172.541 906.077 179.406 931.646C187.059 960.137 201.236 987.509 216.08 1014.47C232.056 1043.45 255.421 1073.86 261.492 1104.84C274.471 1171 226.399 1240.4 259.166 1304.73" stroke="#5E5656" stroke-opacity="0.49" stroke-miterlimit="10"/>
<path d="M280.558 -63.5454C274.821 7.94493 207.4 67.0564 218.089 140.49C226.049 195.206 256.137 247.48 259.623 302.628C262.961 356.238 237.825 410.851 228.058 463.929C218.695 514.815 218.659 564.517 241.424 613.46C266.224 666.749 255.297 719.551 228.822 772.019C214.698 799.991 192.377 826.687 180.844 855.113C170.554 880.45 172.873 907.098 180.284 932.477C188.61 960.92 203.528 988.157 218.975 1015C235.58 1043.83 259.535 1074.2 265.759 1105.27C279.106 1171.28 226.403 1240.67 260.567 1304.72" stroke="#5E5656" stroke-opacity="0.49" stroke-miterlimit="10"/>
<path d="M282.509 -63.5762C276.766 7.56275 209.343 66.4842 219.365 139.501C227.276 197.2 259.75 252.582 260.029 310.924C260.271 360.803 237.364 411.22 227.951 460.643C217.954 513.154 219.051 563.248 243.034 613.567C269.564 669.366 256.921 722.242 227.292 776.897C214.02 801.398 195.756 824.829 183.352 849.497C170.229 875.601 171.999 904.005 179.938 930.526C188.936 960.621 205.607 989.302 222.547 1017.55C239.683 1046.03 263.649 1076.21 269.636 1107.11C282.231 1172.46 226.265 1241.51 261.68 1304.69" stroke="#5E5656" stroke-opacity="0.49" stroke-miterlimit="10"/>
<path d="M284.048 -63.6006C278.404 7.73627 210.527 66.665 220.567 139.881C228.491 197.599 260.227 253.248 260.122 311.578C260.019 361.424 236.449 411.595 227.021 460.991C216.998 513.54 218.864 563.612 244.354 613.66C273.064 669.994 258.837 722.62 227.717 777.746C213.949 802.14 195.521 825.64 183.105 850.375C169.967 876.422 172.01 904.698 180.372 931.06C189.906 961.128 207.276 989.684 224.654 1017.84C242.202 1046.27 266.428 1076.44 272.692 1107.41C285.793 1172.63 225.555 1241.83 262.628 1304.69" stroke="#5E5656" stroke-opacity="0.49" stroke-miterlimit="10"/>
<path d="M285.147 -63.6177C279.616 7.8599 211.326 66.7476 221.506 140.171C229.514 197.897 260.592 253.68 260.158 312.091C259.794 361.922 235.437 411.868 225.926 461.246C215.766 513.826 218.307 563.963 245.276 613.665C276.11 670.516 260.612 722.744 228.153 778.357C213.958 802.701 195.339 826.261 182.772 851.017C169.565 877.046 171.728 905.074 180.46 931.411C200.666 992.259 261.756 1046.09 274.881 1107.64C288.763 1172.73 224.393 1242.18 263.274 1304.68" stroke="#5E5656" stroke-opacity="0.49" stroke-miterlimit="10"/>
<path d="M285.846 -63.6299C280.453 7.95947 211.751 66.8347 222.153 140.34C230.339 198.072 260.829 254.055 260.175 312.441C259.591 362.285 234.351 412.026 224.662 461.388C214.337 513.99 217.389 564.29 245.768 613.685C278.713 671.006 262.257 722.669 228.461 778.825C213.96 802.975 194.614 826.604 182.556 851.408C169.767 877.754 171.27 904.947 180.378 931.563C201.245 992.505 262.385 1046.04 276.393 1107.79C291.167 1172.78 222.803 1242.58 263.683 1304.63" stroke="#5E5656" stroke-opacity="0.49" stroke-miterlimit="10"/>
<path d="M286.108 -63.6333C280.91 8.02897 211.794 66.8063 222.54 140.382C230.973 198.11 260.97 254.177 260.194 312.679C259.528 362.534 233.186 412.103 223.249 461.459C212.663 514.065 216.09 564.624 245.853 613.703C280.893 671.437 263.808 722.389 228.7 779.098C196.649 830.904 159.906 873.75 180.09 931.521C201.44 992.617 262.068 1045.9 277.124 1107.85C292.9 1172.75 220.79 1242.98 263.755 1304.71" stroke="#5E5656" stroke-opacity="0.49" stroke-miterlimit="10"/>
</svg>
