<svg width="148" height="126" viewBox="0 0 148 126" fill="none" xmlns="http://www.w3.org/2000/svg">
<path id="Vector" d="M73.2409 85.8916L73.241 85.8927C75.366 101.894 62.4459 115.632 46.2191 115.632C32.9812 115.632 21.9192 106.446 19.4811 94.3802C19.0313 92.0579 21.0188 89.8429 23.5865 89.8429H33.0673C34.8177 89.8429 36.4675 90.8162 36.9883 92.3245L36.9891 92.3268C38.3024 96.0715 41.9605 98.7725 46.248 98.7725C52.1675 98.7725 56.8853 93.664 55.8748 87.7518L55.8748 87.7515C55.0739 83.0829 50.5155 79.9133 45.7277 79.9133H4.6248C2.34056 79.9133 0.5 78.1116 0.5 75.9485V67.0189C0.5 64.8559 2.34056 63.0541 4.6248 63.0541H45.2941C59.1586 63.0541 71.515 72.6713 73.2409 85.8916ZM111.372 28.4271L111.372 28.4268C112.383 22.5136 107.635 17.4062 101.746 17.4062C97.4581 17.4062 93.8 20.1071 92.4866 23.8519L92.4859 23.8541C91.9646 25.3638 90.3424 26.3357 88.5649 26.3357H79.0841C76.5368 26.3357 74.5328 24.1422 75.0069 21.8295L75.0073 21.8275C77.7846 7.98365 91.8824 -2.03224 107.63 1.15099C117.907 3.23412 126.217 11.2661 128.37 21.1657L128.858 21.0594L128.37 21.1657C132.054 38.0997 118.712 53.1245 101.746 53.1245H4.6248C2.34057 53.1245 0.5 51.3228 0.5 49.1597V40.2301C0.5 38.0671 2.34056 36.2653 4.6248 36.2653H101.225C106.043 36.2653 110.572 33.0949 111.372 28.4271ZM71.7868 63.0541H115.62C135.705 63.0541 151.471 81.0584 146.612 101.141C143.885 112.412 134.244 121.455 122.515 123.846L122.515 123.846C105.736 127.283 90.7433 117.88 85.6817 103.989L85.6805 103.986C84.7497 101.484 86.782 98.7725 89.6344 98.7725H99.4043C100.956 98.7725 102.441 99.4446 103.166 100.649C105.652 104.841 110.263 107.702 115.62 107.702C123.539 107.702 129.994 101.495 129.994 93.8077C129.994 86.1203 123.539 79.9133 115.62 79.9133H82.326C80.4754 73.37 76.8168 67.5584 71.7868 63.0541Z" fill="black" stroke="white"/>
</svg>
