<svg width="86" height="61" viewBox="0 0 86 61" fill="none" xmlns="http://www.w3.org/2000/svg">
<path id="Vector" d="M20.9345 46.9452L20.9345 46.9448C21.198 45.7153 22.0377 44.7105 23.1326 44.023C24.2285 43.335 25.6087 42.9438 27.0293 42.9461L82.6715 43.0349C83.9611 43.037 84.8446 42.1947 84.8537 41.3681L84.9012 37.0276C84.9102 36.2009 84.0451 35.3559 82.7555 35.3538L26.8136 35.2646C21.9647 35.2568 17.6295 37.0635 14.7675 39.8665C11.9116 42.6636 10.5265 46.4417 11.5143 50.4448L11.0288 50.5689L11.5143 50.4449C12.668 55.122 17.3093 58.9953 23.1805 60.0109L20.9345 46.9452ZM20.9345 46.9452C20.6032 48.4965 21.1768 49.9336 22.2499 50.9632C23.3186 51.9885 24.8903 52.6237 26.6237 52.6265C29.1319 52.6305 31.3532 51.3001 32.1827 49.3567L32.1838 49.3542M20.9345 46.9452L32.1838 49.3542M32.1838 49.3542C32.4328 48.7618 33.257 48.2965 34.2633 48.2981L39.7243 48.3069C40.4148 48.308 41.025 48.5623 41.4177 48.9296C41.8066 49.2933 41.9597 49.7372 41.8486 50.1745L41.848 50.1769M32.1838 49.3542L41.848 50.1769M41.848 50.1769C40.2216 56.7149 32.2008 61.5668 23.1808 60.0109L41.848 50.1769ZM43.6184 19.0618L43.6182 19.0605C43.0653 15.2837 44.6061 11.7639 47.4625 9.17161C50.3225 6.57607 54.492 4.92482 59.1293 4.93223C66.7186 4.94434 72.9119 9.39438 74.2153 15.0963C74.3112 15.5373 74.1454 15.9864 73.7483 16.3517C73.3476 16.7205 72.7322 16.9756 72.0343 16.9745L66.5733 16.9658C65.5819 16.9642 64.7526 16.4952 64.517 15.9032L64.5159 15.9006C63.729 13.9547 61.5368 12.6172 59.0287 12.6132C57.2875 12.6104 55.7015 13.2403 54.6121 14.2628C53.5179 15.2897 52.9183 16.725 53.2154 18.2762L53.2154 18.2765C53.4522 19.5079 54.275 20.5152 55.3562 21.2055C56.4385 21.8966 57.8099 22.2923 59.2225 22.2946L82.8979 22.3324C84.1876 22.3344 85.0526 23.1795 85.0436 24.0061L84.9961 28.3466C84.987 29.1732 84.1036 30.0155 82.8139 30.0134L59.3882 29.976C51.4221 29.9633 44.5142 25.294 43.6184 19.0618ZM43.4151 29.9505L18.8803 29.9114C13.1336 29.9022 8.04459 27.7186 4.76153 24.354C1.48514 20.9961 0.00951426 16.4722 1.42848 11.7077C3.02005 6.36287 8.52179 2.01225 15.2534 0.867087L15.2539 0.867019C24.8952 -0.781428 33.3669 3.79562 36.1499 10.4128L36.1514 10.4163C36.3615 10.9053 36.2429 11.4146 35.8597 11.8346C35.4698 12.2617 34.8144 12.5746 34.0379 12.5733L28.4104 12.5643C27.5358 12.5629 26.762 12.2387 26.413 11.7409C24.9505 9.62556 22.2418 8.21394 19.1176 8.20895C14.53 8.20163 10.5925 11.2446 10.5492 15.2061C10.5059 19.1675 14.3767 22.223 18.9643 22.2303L38.0008 22.2607C38.9928 25.2097 40.8655 27.8433 43.4151 29.9505Z" fill="black" stroke="white"/>
</svg>
