<svg width="58" height="46" viewBox="0 0 58 46" fill="none" xmlns="http://www.w3.org/2000/svg">
<path id="Vector" d="M14.1253 35.3922L14.1254 35.3918C14.4884 33.5082 16.4389 32.3171 18.4046 32.3223L56.0983 32.4209C56.8707 32.4229 57.4066 31.872 57.4103 31.317L57.4318 28.1024C57.4355 27.5474 56.9069 26.9937 56.1345 26.9917L18.2379 26.8926C11.7436 26.8756 6.73558 32.1432 8.07088 37.9746L8.0709 37.9746C8.85372 41.3945 11.9632 44.2191 15.8742 44.9616L14.1253 35.3922ZM14.1253 35.3922C13.6667 37.7807 15.7305 39.7445 18.152 39.7509C19.9293 39.7555 21.4892 38.7257 22.065 37.2388L22.0659 37.2363M14.1253 35.3922L22.0659 37.2363M22.0659 37.2363C22.2093 36.8603 22.6956 36.5481 23.3166 36.5497L27.0161 36.5594C27.4324 36.5605 27.8016 36.7286 28.0396 36.9713C28.2744 37.2108 28.3681 37.5031 28.3018 37.7927L28.3013 37.7949M22.0659 37.2363L28.3013 37.7949M28.3013 37.7949C27.2295 42.5743 21.888 46.1002 15.8744 44.9617L28.3013 37.7949ZM29.7432 14.7598L29.7431 14.7586C28.9871 9.24921 33.846 4.43097 40.0546 4.44721C45.1086 4.46043 49.2549 7.70345 50.1409 11.8738C50.2534 12.4331 49.719 13.1164 48.8282 13.114L45.1287 13.1044C44.5171 13.1028 44.0251 12.7867 43.8872 12.4112L43.8863 12.4088C43.3304 10.9189 41.7843 9.88098 40.0071 9.87633C37.5731 9.86997 35.4957 11.824 35.9223 14.2138L35.9224 14.2141C36.2603 16.1003 38.2069 17.3009 40.1605 17.306L56.1989 17.3479C56.9713 17.35 57.4998 17.9036 57.4961 18.4586L57.4747 21.6732C57.471 22.2282 56.9351 22.7791 56.1627 22.7771L40.2934 22.7356C34.9795 22.7217 30.3569 19.3132 29.7432 14.7598ZM29.118 22.7064L12.8522 22.6638C5.14091 22.6437 -0.729051 16.2787 1.14204 9.32664C2.19509 5.41359 5.86633 2.23929 10.357 1.4075L10.3574 1.40741C16.7934 0.209222 22.468 3.55321 24.3478 8.39941L24.3491 8.40275C24.4781 8.72833 24.4067 9.06707 24.1753 9.34525C23.94 9.62796 23.5454 9.83328 23.0776 9.83206L19.2654 9.82209C18.7192 9.82066 18.2569 9.59925 18.0531 9.28344C17.0322 7.67699 15.1418 6.59668 12.9595 6.59097C9.75043 6.58258 7.03009 8.9063 7.01013 11.8974C6.99016 14.8884 9.67939 17.2263 12.8884 17.2347L25.66 17.2681C26.3209 19.3321 27.5116 21.1891 29.118 22.7064Z" stroke="white"/>
</svg>
